<svg
    width="24"
    height="24"
    viewBox="0 0 16 16"
    className="bi bi-github"
    fill="currentColor"
    xmlns="http://www.w3.org/2000/svg"
  >
    <path
      fillRule="evenodd"
      d="M8 0a8 8 0 0 0-2.53 15.589c.4.074.547-.173.547-.384 0-.19-.007-.693-.01-1.36-2.225.484-2.695-1.072-2.695-1.072a2.127 2.127 0 0 0-.895-1.173c-.73-.502.056-.492.056-.492.81.057 1.236.834 1.236.834a1.958 1.958 0 0 0 1.13 1.067A2.013 2.013 0 0 0 8 11.31a2.013 2.013 0 0 0 1.766-1.073 1.958 1.958 0 0 0 1.13-1.067s.426-.777 1.236-.834c.11.274.44.49.85.492.473.003.946.008 1.362.01-.004.667-.01 1.17-.01 1.36 0 .21.145.46.55.384A8 8 0 0 0 8 0zm0 2a6 6 0 0 1 6 6c0 2.6-1.688 4.8-4.04 5.59-.3.06-.41-.13-.41-.29 0-.14.005-.51.007-.995 1.648-.358 2.82-.887 3.515-1.554a.464.464 0 0 0 .13-.454c-.42-1.354-1.612-1.754-1.612-1.754-.832-.57.064-.56.064-.56a1.054 1.054 0 0 1 1.541 0c.805.452 1.317 1.317 1.317 1.317.768 1.315 2.014.937 2.507.716.077-.56.304-.938.554-1.153-1.936-.22-3.974-.968-3.974-4.316 0-.952.34-1.727.898-2.336-.09-.22-.39-1.104.086-2.3 0 0 .73-.233 2.4.89a8.386 8.386 0 0 1 4.36 0c1.67-1.123 2.4-.89 2.4-.89.476 1.196.176 2.08.086 2.3.56.61.896 1.385.896 2.336 0 3.355-2.04 4.093-3.98 4.31.31.268.592.798.592 1.61 0 1.16-.01 2.097-.01 2.388 0 .16-.11.35-.42.29A6 6 0 0 1 8 2z"
    />
  </svg>